#!OML:ASF H:\Punching\Project 1\Capture day 1\Session 1\female.ASF
:FULLY-SPECIFIED
:DEGREES
1684
root 2.14259 15.1434 9.50051 13.168 -21.6955 -2.64034
lowerback 1.19121 -3.60896 -0.660617
upperback -5.63506 -4.74754 3.05519
thorax -6.2094 -2.25322 3.85765
lowerneck -6.75752 6.74025 13.7533
upperneck 40.5644 7.48692 -2.89733
head 16.4968 4.66721 -2.58713
rclavicle -3.40232e-014 7.15625e-015
rhumerus -1.53493 28.5976 -70.7327
rradius 127.54
rwrist -1.92887
rhand -33.434 3.4482
rfingers 7.12502
rthumb -6.63324 -26.4279
lclavicle -3.40232e-014 7.15625e-015
lhumerus 22.9703 -21.0221 63.2016
lradius 89.1572
lwrist -5.88252
lhand -26.0753 7.18787
lfingers 7.12502
lthumb 0.47305 37.1671
rfemur -3.97767 7.09056 6.08335
rtibia 20.3742
rfoot -20.632 -10.3034
rtoes -16.1667
lfemur -38.8368 2.45903 -9.26685
ltibia 38.6017
lfoot -9.13885 9.21979
ltoes -3.52959
1685
root 2.08439 15.1423 9.45313 12.8861 -21.6092 -2.40159
lowerback 1.12733 -3.50695 -0.614314
upperback -5.63258 -4.61724 2.865
thorax -6.19716 -2.19567 3.62107
lowerneck -6.74627 6.63314 13.6656
upperneck 40.5817 7.34824 -2.88045
head 16.4776 4.6013 -2.58901
rclavicle 6.74936e-015 -1.0138e-014
rhumerus -1.83552 28.2252 -69.6993
rradius 127.344
rwrist -1.9607
rhand -32.6113 3.39982
rfingers 7.12502
rthumb -5.83893 -26.4997
lclavicle 6.74936e-015 -1.0138e-014
lhumerus 21.5857 -20.5156 62.12
lradius 90.4955
lwrist -5.57556
lhand -24.4212 7.49214
lfingers 7.12502
lthumb 2.07057 37.4618
rfemur -4.0298 7.00424 6.1039
rtibia 20.767
rfoot -20.9098 -10.3212
rtoes -16.4359
lfemur -38.4132 2.26633 -9.14883
ltibia 38.0003
lfoot -8.79087 9.25282
ltoes -3.75301
1686
root 2.02373 15.1409 9.40354 12.6202 -21.5272 -2.1874
lowerback 1.05737 -3.40352 -0.534395
upperback -5.62945 -4.48364 2.67609
thorax -6.1823 -2.13829 3.36686
lowerneck -6.73255 6.53319 13.5756
upperneck 40.5864 7.22141 -2.86243
head 16.4522 4.53986 -2.5877
rclavicle -6.44715e-014 -1.45113e-014
rhumerus -2.18667 27.9042 -68.6834
rradius 127.096
rwrist -1.89487
rhand -31.818 3.3632
rfingers 7.12502
rthumb -5.07303 -26.5561
lclavicle -6.44715e-014 -1.45113e-014
lhumerus 20.1399 -19.9791 61.0199
lradius 91.7733
lwrist -5.26806
lhand -22.7452 7.68269
lfingers 7.12502
lthumb 3.68919 37.6305
rfemur -4.09434 6.89184 6.17801
rtibia 21.1639
rfoot -21.1601 -10.3083
rtoes -16.6441
lfemur -37.9919 2.0696 -8.98851
ltibia 37.385
lfoot -8.43517 9.30384
ltoes -3.98876
1687
root 1.9604 15.1393 9.35113 12.3712 -21.4493 -2.0043
lowerback 0.977893 -3.29391 -0.41626
upperback -5.61706 -4.34043 2.48469
thorax -6.15442 -2.07843 3.08755
lowerneck -6.72969 6.43823 13.4881
upperneck 40.5779 7.09862 -2.83934
head 16.4231 4.48073 -2.58323
rclavicle -2.9035e-014 -1.41137e-014
rhumerus -2.58705 27.6191 -67.6972
rradius 126.804
rwrist -1.77258
rhand -31.0576 3.34281
rfingers 7.12502
rthumb -4.33872 -26.5927
lclavicle -2.9035e-014 -1.41137e-014
lhumerus 18.6524 -19.4213 59.9069
lradius 92.9645
lwrist -4.94881
lhand -21.0967 7.71287
lfingers 7.12502
lthumb 5.28098 37.6271
rfemur -4.18297 6.75324 6.31722
rtibia 21.5936
rfoot -21.3938 -10.2913
rtoes -16.7848
lfemur -37.5695 1.86778 -8.77614
ltibia 36.7487
lfoot -8.06414 9.37386
ltoes -4.22296
1688
root 1.89428 15.1377 9.29559 12.1362 -21.3735 -1.84009
lowerback 0.893171 -3.1784 -0.276708
upperback -5.59698 -4.18888 2.28871
thorax -6.11612 -2.01577 2.79085
lowerneck -6.73928 6.34729 13.4034
upperneck 40.5586 6.97771 -2.81026
head 16.3915 4.42323 -2.57561
rclavicle -9.23572e-014 -8.74653e-015
rhumerus -3.04298 27.3728 -66.7565
rradius 126.484
rwrist -1.64118
rhand -30.2757 3.25672
rfingers 7.12502
rthumb -3.58371 -26.6929
lclavicle -9.23572e-014 -8.74653e-015
lhumerus 17.1153 -18.8631 58.7881
lradius 94.0685
lwrist -4.63665
lhand -19.5357 7.62962
lfingers 7.12502
lthumb 6.78808 37.5008
rfemur -4.30544 6.58626 6.51113
rtibia 22.0755
rfoot -21.6265 -10.2993
rtoes -16.8363
lfemur -37.1417 1.65073 -8.52172
ltibia 36.0786
lfoot -7.67007 9.46993
ltoes -4.45619
1689
root 1.82527 15.1364 9.23667 11.9124 -21.2931 -1.69128
lowerback 0.806354 -3.05686 -0.121999
upperback -5.56895 -4.02905 2.08924
thorax -6.06816 -1.94991 2.48165
lowerneck -6.76807 6.25865 13.3113
upperneck 40.5358 6.85395 -2.76615
head 16.3615 4.36506 -2.55978
rclavicle -5.53646e-015 4.77083e-015
rhumerus -3.56609 27.1643 -65.8692
rradius 126.141
rwrist -1.54062
rhand -29.4863 3.11686
rfingers 7.12502
rthumb -2.82132 -26.8442
lclavicle -5.53646e-015 4.77083e-015
lhumerus 15.5273 -18.3454 57.6654
lradius 95.0963
lwrist -4.3841
lhand -18.1447 7.58407
lfingers 7.12502
lthumb 8.13072 37.4076
rfemur -4.46472 6.37968 6.75885
rtibia 22.6159
rfoot -21.8704 -10.3742
rtoes -16.7913
lfemur -36.7035 1.41807 -8.2295
ltibia 35.3613
lfoot -7.24034 9.58648
ltoes -4.66128
1690
root 1.7533 15.1358 9.17415 11.6959 -21.2137 -1.54705
lowerback 0.723511 -2.93182 0.0267996
upperback -5.5326 -3.86511 1.88796
thorax -6.0117 -1.88171 2.17408
lowerneck -6.81175 6.17531 13.2114
upperneck 40.5042 6.73418 -2.71099
head 16.3302 4.30848 -2.53643
rclavicle 3.53643e-014 -1.53064e-014
rhumerus -4.15054 26.9985 -65.0496
rradius 125.784
rwrist -1.50818
rhand -28.6506 2.90673
rfingers 7.12502
rthumb -2.01426 -27.0635
lclavicle 3.53643e-014 -1.53064e-014
lhumerus 13.8799 -17.8666 56.5497
lradius 96.0465
lwrist -4.20764
lhand -16.9461 7.5851
lfingers 7.12502
lthumb 9.28735 37.3605
rfemur -4.65926 6.1542 7.04731
rtibia 23.2052
rfoot -22.1481 -10.5474
rtoes -16.6992
lfemur -36.2441 1.15206 -7.90412
ltibia 34.581
lfoot -6.77147 9.74617
ltoes -4.82607
1691
root 1.67834 15.136 9.10786 11.4883 -21.1279 -1.41063
lowerback 0.653862 -2.80561 0.167316
upperback -5.49216 -3.6999 1.68936
thorax -5.956 -1.81219 1.875
lowerneck -6.86971 6.09668 13.1046
upperneck 40.4661 6.61867 -2.64799
head 16.2988 4.2534 -2.50716
rclavicle 1.0343e-015 -2.48481e-014
rhumerus -4.81147 26.8755 -64.3071
rradius 125.414
rwrist -1.58153
rhand -27.7404 2.64291
rfingers 7.12502
rthumb -1.13515 -27.3338
lclavicle 1.0343e-015 -2.48481e-014
lhumerus 12.1642 -17.4408 55.4538
lradius 96.9313
lwrist -4.12867
lhand -15.9421 7.65409
lfingers 7.12502
lthumb 10.256 37.3841
rfemur -4.88336 5.91808 7.37959
rtibia 23.8218
rfoot -22.4551 -10.8261
rtoes -16.6458
lfemur -35.7612 0.840414 -7.53812
ltibia 33.7242
lfoot -6.25818 9.95694
ltoes -4.91116
1692
root 1.60046 15.1374 9.03792 11.2854 -21.0357 -1.27385
lowerback 0.615175 -2.6814 0.285245
upperback -5.45897 -3.53782 1.49692
thorax -5.9221 -1.74258 1.59755
lowerneck -6.92218 6.02291 12.9907
upperneck 40.4196 6.51224 -2.58172
head 16.2623 4.20141 -2.47374
rclavicle 2.96415e-014 2.18663e-015
rhumerus -5.56672 26.812 -63.6563
rradius 125.018
rwrist -1.74983
rhand -26.8007 2.37563
rfingers 7.12502
rthumb -0.227596 -27.604
lclavicle 2.96415e-014 2.18663e-015
lhumerus 10.3702 -17.0646 54.3932
lradius 97.7424
lwrist -4.13728
lhand -15.1213 7.77261
lfingers 7.12502
lthumb 11.0477 37.4619
rfemur -5.12668 5.67932 7.74327
rtibia 24.4376
rfoot -22.801 -11.1806
rtoes -16.5869
lfemur -35.2465 0.471067 -7.13822
ltibia 32.7792
lfoot -5.70091 10.2345
ltoes -4.90497
1693
root 1.51975 15.1404 8.96436 11.0886 -20.9348 -1.13971
lowerback 0.600728 -2.56 0.381589
upperback -5.42734 -3.37984 1.31214
thorax -5.90033 -1.67355 1.34187
lowerneck -6.96987 5.95411 12.8716
upperneck 40.3574 6.41635 -2.51659
head 16.2174 4.15271 -2.43815
rclavicle -3.07017e-014 -9.24349e-015
rhumerus -6.41696 26.8043 -63.1029
rradius 124.596
rwrist -2.02038
rhand -25.9993 2.15642
rfingers 7.12502
rthumb 0.546414 -27.8226
lclavicle -3.07017e-014 -9.24349e-015
lhumerus 8.51581 -16.7102 53.3781
lradius 98.4637
lwrist -4.19205
lhand -14.4393 7.81926
lfingers 7.12502
lthumb 11.7055 37.4722
rfemur -5.37678 5.44876 8.1382
rtibia 25.024
rfoot -23.1692 -11.5903
rtoes -16.4838
lfemur -34.6965 0.0338154 -6.69945
ltibia 31.7369
lfoot -5.09658 10.5935
ltoes -4.80578
1694
root 1.43648 15.1451 8.88741 10.9034 -20.8157 -1.01235
lowerback 0.615208 -2.44364 0.463924
upperback -5.40281 -3.22857 1.13466
thorax -5.89993 -1.6068 1.10374
lowerneck -7.01397 5.88958 12.7542
upperneck 40.2843 6.32857 -2.45394
head 16.1674 4.10722 -2.40258
rclavicle 1.96038e-014 7.95139e-016
rhumerus -7.37043 26.8498 -62.669
rradius 124.147
rwrist -2.41222
rhand -25.1977 1.94693
rfingers 7.12502
rthumb 1.32061 -28.0287
lclavicle 1.96038e-014 7.95139e-016
lhumerus 6.60343 -16.3727 52.4193
lradius 99.086
lwrist -4.27356
lhand -13.8811 7.77862
lfingers 7.12502
lthumb 12.2437 37.4002
rfemur -5.62166 5.22922 8.5644
rtibia 25.5576
rfoot -23.529 -12.0422
rtoes -16.3135
lfemur -34.1161 -0.478638 -6.21818
ltibia 30.5913
lfoot -4.44504 11.0422
ltoes -4.59239
1695
root 1.35094 15.152 8.80729 10.729 -20.6711 -0.888788
lowerback 0.642481 -2.33269 0.540749
upperback -5.37405 -3.08473 0.95588
thorax -5.90082 -1.54348 0.868138
lowerneck -7.06431 5.82756 12.6423
upperneck 40.193 6.24227 -2.38933
head 16.11 4.06307 -2.36653
rclavicle -2.27768e-014 -1.57537e-014
rhumerus -8.41199 26.9241 -62.3647
rradius 123.665
rwrist -2.94401
rhand -24.4526 1.78338
rfingers 7.12502
rthumb 2.04021 -28.1866
lclavicle -2.27768e-014 -1.57537e-014
lhumerus 4.66326 -16.0555 51.5061
lradius 99.6137
lwrist -4.36143
lhand -13.4463 7.70116
lfingers 7.12502
lthumb 12.663 37.2973
rfemur -5.84372 5.01859 9.01258
rtibia 26.0167
rfoot -23.8619 -12.5072
rtoes -16.0486
lfemur -33.5074 -1.09096 -5.69236
ltibia 29.3419
lfoot -3.75065 11.6059
ltoes -4.23184
1696
root 1.26344 15.161 8.72429 10.5726 -20.4948 -0.774418
lowerback 0.676072 -2.23022 0.619282
upperback -5.34067 -2.95216 0.776924
thorax -5.8993 -1.48584 0.632072
lowerneck -7.12199 5.76961 12.5449
upperneck 40.0822 6.16028 -2.32966
head 16.0461 4.02183 -2.33409
rclavicle 5.14559e-014 -1.73937e-015
rhumerus -9.53039 27.0282 -62.1937
rradius 123.143
rwrist -3.61649
rhand -23.7284 1.62627
rfingers 7.12502
rthumb 2.73968 -28.3359
lclavicle 5.14559e-014 -1.73937e-015
lhumerus 2.7032 -15.7448 50.6445
lradius 100.055
lwrist -4.41187
lhand -13.1028 7.60534
lfingers 7.12502
lthumb 12.9941 37.1807
rfemur -6.03384 4.8262 9.48013
rtibia 26.3824
rfoot -24.1526 -12.9612
rtoes -15.6943
lfemur -32.8832 -1.81291 -5.11362
ltibia 27.9952
lfoot -3.01835 12.2993
ltoes -3.70847
